PathFileType	4	(X/Y/Z)	0_coords_data.trc
DataRate	CameraRate	NumFrames	NumMarkers	Units	OrigDataRate	OrigDataStartFrame	OrigNumFrames
30.0	30.0	7	21	m	30.0	31	72
Frame#	Time	THUMB_TIP	THUMB_IP	THUMB_MCP	THUMB_CMC	INDEX_TIP	INDEX_DIP	INDEX_PIP	INDEX_MCP	MIDDLE_TIP	MIDDLE_DIP	MIDDLE_PIP	MIDDLE_MCP	RING_TIP	RING_DIP	RING_PIP	RING_MCP	PINKY_TIP	PINKY_DIP	PINKY_PIP	PINKY_MCP	WRIST
X1	Y1	Z1	X2	Y2	Z2	X3	Y3	Z3	X4	Y4	Z4	X5	Y5	Z5	X6	Y6	Z6	X7	Y7	Z7	X8	Y8	Z8	X9	Y9	Z9	X10	Y10	Z10	X11	Y11	Z11	X12	Y12	Z12	X13	Y13	Z13	X14	Y14	Z14	X15	Y15	Z15	X16	Y16	Z16	X17	Y17	Z17	X18	Y18	Z18	X19	Y19	Z19	X20	Y20	Z20	X21	Y21	Z21
29	0.9999999999999956	0.4883899727730179	-0.021218193696444176	-0.1692903406715307	0.4934654929179225	-0.02156225298532699	-0.1468822903666871	0.47831198631410354	-0.02780529284081401	-0.12042070139378497	0.47779703890774883	-0.026359381935539994	-0.07583893190419766	0.49715929444393503	-0.014513980156001582	-0.09923567771032893	0.5147943359342293	-0.014882696662806727	-0.10334291032770132	0.5292535221973789	0.0005704500392195166	-0.11691280430713996	0.4923327421326814	0.0217935957041282	-0.11717772221953793	0.4999702099859399	-0.015858217530925978	-0.08588722305347862	0.5175815101142627	-0.011845820030138454	-0.0872073647450437	0.5366865726882131	0.007722284285073822	-0.0972818586556286	0.5002536546285835	0.033577800595047	-0.09675018299789606	0.4989996029026441	-0.005958627938320693	-0.073489141941049	0.5168146138975431	-0.0069845068711652525	-0.07092536432456797	0.5378174512365737	0.005611230897577979	-0.07544290710480628	0.5112720069367658	0.036100296425971345	-0.07475217985681076	0.5038890404414577	-0.009376780532664886	-0.055946029340196435	0.5209835159055748	-0.010255719697766175	-0.05602587012392157	0.5373521395344145	0.0028868428493445952	-0.05563442511798955	0.5138530018131475	0.02986909032773344	-0.05109214613361335	0.462283081001861	-0.023011742144276925	-0.051989820119430985
30	1.0333333333333288	0.4883387367822465	-0.021073598168208196	-0.16929572263437015	0.4934260427242314	-0.02144520033582431	-0.1468907850071044	0.47828801089121165	-0.02773921837233284	-0.12043241526937132	0.4777829702836036	-0.02635607976843879	-0.0758485408124886	0.4971475047024916	-0.014518493561222257	-0.09917738916459151	0.5147735704308212	-0.01485407725276755	-0.1033257853036525	0.5292050469258747	0.0006342105361036854	-0.1168851090530813	0.4922857125798572	0.021859823280520052	-0.11715382650887263	0.499918707488473	-0.015810381043467214	-0.08588947440074113	0.5175240643182948	-0.011768930406171552	-0.08720023282278072	0.5366350698251896	0.007804910927214137	-0.09725228504960881	0.500191477924863	0.03364531528703851	-0.09671746459075059	0.4989803185624133	-0.005824150864488509	-0.07349728134681704	0.5167859490656599	-0.006947244853951373	-0.07090919667418955	0.5377827492742355	0.005669554195430471	-0.0753959261900708	0.511228839762002	0.03615140575279918	-0.07471222358611534	0.5038674084790562	-0.009275835145288736	-0.055910969576998704	0.5209591189872782	-0.0102074920473465	-0.05598477553867465	0.5373271505719579	0.002935544711616833	-0.055584593335835986	0.5138151304916743	0.029904955537971456	-0.05103275388088552	0.4622830810018609	-0.023011742144276925	-0.05198982011943104
31	1.0666666666666622	0.4881759695884754	-0.020883774563322466	-0.16928926879980866	0.49336200164862265	-0.0212929240131432	-0.14690763194727174	0.478299929366389	-0.027654692758373955	-0.12042212879938013	0.47780013889055417	-0.026371536906385162	-0.07583520559829154	0.49716718754354206	-0.014526496616296236	-0.0991199179254782	0.514792015132304	-0.014831357861117445	-0.10327593911019578	0.5292218040908532	0.0006750726081683478	-0.11681630977398988	0.49228925562295967	0.021876909946248024	-0.11714042573521899	0.4999401428442938	-0.015740550673342346	-0.08590235072371938	0.5175583464141804	-0.01173481728555259	-0.0871485461321429	0.5366472687592247	0.007870285515278463	-0.0971816183372915	0.5001768315776655	0.033673720238404536	-0.09669387939552271	0.4990093435541182	-0.005708404778689946	-0.07362125028577854	0.5167845427934028	-0.006921396377077227	-0.0708697155529468	0.5377789099718353	0.005713958056064117	-0.0753154263089521	0.5112089137876881	0.03618269939052077	-0.07467360213647306	0.50384400457985	-0.009275738380679521	-0.055910506784228264	0.5209367162835675	-0.010191791038383302	-0.055917864902718606	0.5373042132533039	0.002951454601367254	-0.05550294804496775	0.5137922129601951	0.029926353021128116	-0.050983639639864575	0.4622830810018609	-0.023011742144276925	-0.05198982011943104
32	1.0999999999999952	0.4878346622106883	-0.020585329833112787	-0.1692828932393109	0.4932210721292727	-0.021044131223651896	-0.14694959770387733	0.4782629328468089	-0.027517044952636738	-0.12043214199893576	0.47779940732844317	-0.026324055221979004	-0.07584232343464498	0.497117230168889	-0.014451915354853684	-0.09904966639857665	0.5147522464740286	-0.014715356405828217	-0.10316510060776035	0.5292384915951007	0.0007621960385306714	-0.11667820186632899	0.49229520839624086	0.02194376942927334	-0.11709156512234076	0.49986081381512193	-0.015641475614582956	-0.08585382347942028	0.5174861149578472	-0.011641640976402301	-0.08701575398313127	0.5366156821624869	0.007951711701951414	-0.09699421776193123	0.5001431924034921	0.03375414518205988	-0.09662026818697456	0.4988917015215295	-0.005630691853900971	-0.07357020980698714	0.5166570499925807	-0.006825857166905092	-0.07074815850045274	0.5376847890157089	0.00577865220203988	-0.07512314583110724	0.5111444021129223	0.03627495326146024	-0.07457149490561732	0.5037231114028415	-0.009208961995262444	-0.05580851128071751	0.5208134321220611	-0.010167795751615416	-0.05576881818443963	0.5371882120348767	0.0029652638732536873	-0.05532010146257399	0.5137223239263298	0.02999201841975785	-0.050871496629574964	0.4622830810018609	-0.023011742144276925	-0.05198982011943104
33	1.1333333333333284	0.4876823531224921	-0.02043765159158739	-0.16929453235075037	0.49315498483881504	-0.02092337523163368	-0.14698277816953476	0.47821753973500436	-0.02743213633464847	-0.12046243196752365	0.47776361301035375	-0.026281799925202076	-0.07587139389176512	0.49690179139134916	-0.01436227879648555	-0.09898992564024522	0.5145361923695122	-0.014660080393796182	-0.10310565356492629	0.5291663523408577	0.0006978397812819059	-0.11660019098229524	0.492282899727154	0.021982239651531676	-0.1170706582563818	0.4996281715466623	-0.015563039500954834	-0.08591535306559572	0.5172674032637277	-0.011587386808158073	-0.08694087249395127	0.5365439780370641	0.007889297953888375	-0.09686468051747932	0.5001384314888474	0.03378725704829122	-0.09658216278305481	0.49865513322404786	-0.0055476913207431755	-0.07361821423630277	0.516394817352311	-0.006790654174977706	-0.07065871252614225	0.5375391798385454	0.0056345165066096214	-0.07498433936905724	0.5111671672247806	0.03627790008121912	-0.07451441618512822	0.5035991011921843	-0.009099709969850989	-0.05570212555769971	0.5206790184807548	-0.010228877294251704	-0.05566462130341415	0.5371231143852736	0.0028169008774341364	-0.055204837899885784	0.5137676583324828	0.029946449010511578	-0.05080100528939774	0.4622830810018609	-0.023011742144276925	-0.051989820119430985
34	1.1666666666666616	0.4878616296009485	-0.02046401646512619	-0.16932840813455702	0.4931730333711556	-0.020944124412986653	-0.14697760308533714	0.47814232569958637	-0.02745096226583643	-0.12050953009071663	0.47769388208099306	-0.026259236838655275	-0.07591952348803543	0.4962478167126293	-0.013869297903237543	-0.0992126871172766	0.5139212795044088	-0.014548488152699601	-0.10310979034308715	0.5288562812516469	0.0005054617906394832	-0.11661290653578238	0.49211523036782057	0.02203410170628939	-0.11711184273849173	0.49906012722295223	-0.01534314115458546	-0.08605264188963108	0.516724265379654	-0.011444284860532505	-0.08693419890949788	0.5362978012439908	0.007720431776098269	-0.09688406725059517	0.5000351632822396	0.033818409766666946	-0.09662999273641976	0.4981352378985797	-0.005130132009240174	-0.07378171959696572	0.5158233203758482	-0.0065564543683076515	-0.07060408796234008	0.537237313589102	0.005374932923565501	-0.07499303669228191	0.5111501252810895	0.036262134358371445	-0.0745927521584539	0.5033546604370889	-0.008790339721691298	-0.05563942021486323	0.520416543222758	-0.010165773422628477	-0.055657803425031405	0.5370413434047383	0.002652270461088957	-0.055303136110044004	0.5138227828313744	0.02989430627374423	-0.050869922751424546	0.4622830810018609	-0.023011742144276925	-0.05198982011943093
35	1.1999999999999948	0.48830621509233607	-0.020657693817226153	-0.16936384892254452	0.4932332320355671	-0.021083867240245246	-0.14692408777732235	0.47798644767035325	-0.027520703336490482	-0.12056270109925193	0.4776067587293462	-0.026272561105257553	-0.07597359954653288	0.4954300896056847	-0.013226174540486024	-0.0993481094824386	0.5131143072249951	-0.014369290313478	-0.10308464979700876	0.5283397216039859	0.00027659344732655633	-0.11671163328026818	0.4917743087847295	0.022101996208197083	-0.11722003635181427	0.49828608348967585	-0.014643387440577249	-0.0861122558980214	0.5160606617932837	-0.011260636884170228	-0.0869005228591695	0.5358874532944928	0.007520993421842093	-0.09707688035170414	0.4997987163044121	0.033858451677534984	-0.09677808930362164	0.4975283962402003	-0.004310256165459658	-0.07357245346564617	0.5151829161108319	-0.006321671449657007	-0.07052743512547616	0.5368130633050276	0.00509802361980316	-0.07520795602362185	0.5110526689749504	0.03625835428386004	-0.07481208879137585	0.5030761939559368	-0.008398215950595422	-0.05525953133682915	0.5201123787178112	-0.009987781644562821	-0.05575115076671405	0.5369594228979708	0.002541747734447375	-0.05574728653641409	0.5138675735323939	0.02985493125132055	-0.0510954105652478	0.4622830810018609	-0.023011742144276925	-0.051989820119430985
